<svg xmlns="http://www.w3.org/2000/svg" viewBox="-15 -25 45 45" width="500" height="500">
  <defs>
    <style>
      .body-dangle {
        transform-origin: 7.5px -2px;
        animation: dangle 2s infinite ease-in-out;
      }
      .arm-flail {
        transform-origin: 4px 5px;
        animation: flail 0.6s infinite alternate ease-in-out;
      }
      .leg-flail-1 { transform-origin: 3px 11px;  animation: leg-fl 0.5s infinite alternate ease-in-out; }
      .leg-flail-2 { transform-origin: 5px 12px;  animation: leg-fl 0.5s infinite alternate ease-in-out; animation-delay: -0.25s; }
      .leg-flail-3 { transform-origin: 9px 12px;  animation: leg-fl 0.5s infinite alternate ease-in-out; animation-delay: -0.25s; }
      .leg-flail-4 { transform-origin: 12px 11px; animation: leg-fl 0.5s infinite alternate ease-in-out; }

      @keyframes dangle {
        0%, 100% { transform: rotate(-3deg); }
        50%      { transform: rotate(3deg); }
      }
      @keyframes flail {
        0%   { transform: rotate(-20deg); }
        100% { transform: rotate(15deg); }
      }
      @keyframes leg-fl {
        0%   { transform: rotate(-15deg); }
        100% { transform: rotate(20deg); }
      }
    </style>
  </defs>

  <!-- No ground shadow when being lifted -->

  <g class="body-dangle">
    <g fill="#A47148">
      <rect class="leg-flail-1" x="2"  y="11" width="2" height="4"/>
      <rect class="leg-flail-2" x="5"  y="12" width="1" height="3"/>
      <rect class="leg-flail-3" x="9"  y="12" width="1" height="3"/>
      <rect class="leg-flail-4" x="11" y="11" width="2" height="4"/>
    </g>

    <g class="arm-flail">
      <g fill="#A47148">
        <rect x="2" y="3"  width="2" height="3"/>
        <rect x="3" y="1"  width="2" height="2"/>
        <rect x="3" y="-1" width="2" height="2"/>
      </g>
    </g>

    <rect x="13" y="7" width="3" height="2" fill="#A47148"/>
    <rect x="2" y="5" width="11" height="7" fill="#A47148"/>

    <g fill="#6B4A2D">
      <rect x="2" y="8"  width="11" height="0.4"/>
      <rect x="6" y="5"  width="0.4" height="3"/>
      <rect x="9" y="8.4" width="0.4" height="3.6"/>
    </g>

    <g fill="#C49A6C">
      <rect x="3"  y="5" width="2" height="1"/>
      <rect x="8"  y="5" width="2" height="1"/>
    </g>

    <g fill="#5DBF7E">
      <rect x="4"  y="6"  width="1" height="1"/>
      <rect x="10" y="6"  width="1" height="1"/>
    </g>

    <!-- Wide concerned eyes -->
    <g fill="#1A1A1A">
      <rect x="3.5" y="7.5" width="1.5" height="2.5"/>
      <rect x="9.5" y="7.5" width="1.5" height="2.5"/>
    </g>
    <g fill="#FFFFFF">
      <rect x="4"  y="8" width="0.4" height="0.5"/>
      <rect x="10" y="8" width="0.4" height="0.5"/>
    </g>
  </g>
</svg>
