<svg xmlns="http://www.w3.org/2000/svg" viewBox="-15 -25 45 45" width="500" height="500">
  <defs>
    <style>
      .collapse-body {
        transform-origin: 7.5px 15px;
        animation: collapse 2.5s 1 ease-in;
      }
      .collapse-shadow {
        transform-origin: 7.5px 15px;
        animation: shadow-spread 2.5s 1 ease-in;
      }
      .arm-fall {
        transform-origin: 4px 5px;
        animation: arm-drop 2.5s 1 ease-in;
      }

      @keyframes collapse {
        0%   { transform: translateY(0) scaleY(1); }
        45%  { transform: translateY(0.5px) scaleY(0.98); }
        80%  { transform: translateY(2px) scaleY(0.65) scaleX(1.05); }
        100% { transform: translateY(2px) scaleY(0.65) scaleX(1.05); }
      }
      @keyframes shadow-spread {
        0%   { transform: scaleX(1); opacity: 0.5; }
        80%, 100% { transform: scaleX(1.4); opacity: 0.6; }
      }
      @keyframes arm-drop {
        0%   { transform: rotate(0deg); }
        45%  { transform: rotate(-3deg); }
        80%, 100% { transform: rotate(70deg) translate(2px, 4px); }
      }
    </style>
  </defs>

  <rect class="collapse-shadow" x="-1" y="15" width="17" height="1" fill="#000000" opacity="0.5"/>

  <g class="collapse-body">
    <g fill="#A47148">
      <rect x="2"  y="11" width="2" height="3"/>
      <rect x="5"  y="12" width="1" height="2"/>
      <rect x="9"  y="12" width="1" height="2"/>
      <rect x="11" y="11" width="2" height="3"/>
    </g>

    <g class="arm-fall">
      <g fill="#A47148">
        <rect x="2" y="3"  width="2" height="3"/>
        <rect x="3" y="1"  width="2" height="2"/>
        <rect x="3" y="-1" width="2" height="2"/>
      </g>
    </g>

    <rect x="13" y="9" width="2" height="2" fill="#A47148"/>
    <rect x="2" y="5" width="11" height="7" fill="#A47148"/>

    <g fill="#6B4A2D">
      <rect x="2" y="8"  width="11" height="0.4"/>
      <rect x="6" y="5"  width="0.4" height="3"/>
      <rect x="9" y="8.4" width="0.4" height="3.6"/>
    </g>

    <g fill="#5DBF7E" opacity="0.7">
      <rect x="4"  y="6"  width="1" height="1"/>
      <rect x="10" y="6"  width="1" height="1"/>
      <rect x="6"  y="10" width="2" height="1"/>
    </g>

    <!-- Closed/dropping eyes -->
    <g fill="#1A1A1A">
      <rect x="4"  y="9.2" width="1" height="0.5"/>
      <rect x="10" y="9.2" width="1" height="0.5"/>
    </g>
  </g>

  <!-- Small dust puff -->
  <g fill="#C49A6C" opacity="0.4">
    <rect x="0" y="14" width="1" height="1">
      <animate attributeName="opacity" values="0;0.6;0" dur="1.2s" begin="2s" fill="freeze"/>
    </rect>
    <rect x="14" y="14" width="1" height="1">
      <animate attributeName="opacity" values="0;0.6;0" dur="1.2s" begin="2s" fill="freeze"/>
    </rect>
  </g>

  <!-- ====== Xenonite glass dome (12-panel dodecahedron, free-rolling) ====== -->
  <g id="rocky-dome" class="dome-tilt">
    <style>
      .dome-pulse   { animation: dome-pulse 3.5s infinite ease-in-out; }
      .dome-flash-a { animation: dome-flash 5s infinite ease-in-out; }
      .dome-flash-b { animation: dome-flash 5s infinite ease-in-out; animation-delay: 2.5s; }
      .dome-tilt    { transform-origin: 7.5px 15.5px; animation: dome-tilt 2.5s 1 ease-in; }
      @keyframes dome-pulse { 0%, 100% { opacity: 0.4; } 50% { opacity: 0.7; } }
      @keyframes dome-flash {
        0%, 100% { opacity: 0; }
        10%, 18% { opacity: 0.85; }
        28%      { opacity: 0; }
      }
      @keyframes dome-tilt {
        0%, 60% { transform: rotate(0deg); }
        100%    { transform: rotate(4deg); }
      }
    </style>
    <polygon points="10.9,-5.5 16.4,-1.5 18.5,5 16.4,11.5 10.9,15.5 4.1,15.5 -1.4,11.5 -3.5,5 -1.4,-1.5 4.1,-5.5"
             fill="#9FD8E8" fill-opacity="0.07"/>
    <g stroke="#7A95A8" stroke-width="0.3" stroke-opacity="0.65" fill="none">
      <line x1="7.5"  y1="0.5" x2="7.5"  y2="-5.5"/>
      <line x1="11.8" y1="3.6" x2="16.4" y2="-1.5"/>
      <line x1="10.1" y1="8.6" x2="16.4" y2="11.5"/>
      <line x1="4.9"  y1="8.6" x2="-1.4" y2="11.5"/>
      <line x1="3.2"  y1="3.6" x2="-1.4" y2="-1.5"/>
    </g>
    <polygon points="7.5,0.5 11.8,3.6 10.1,8.6 4.9,8.6 3.2,3.6"
             fill="none" stroke="#5A7080" stroke-width="0.35" stroke-opacity="0.75"/>
    <polygon points="10.9,-5.5 16.4,-1.5 18.5,5 16.4,11.5 10.9,15.5 4.1,15.5 -1.4,11.5 -3.5,5 -1.4,-1.5 4.1,-5.5"
             fill="none" stroke="#3A4A55" stroke-width="0.55" stroke-opacity="0.95"/>
    <g fill="#1A2530">
      <rect x="10.6" y="-5.8" width="0.6" height="0.6"/>
      <rect x="16.1" y="-1.8" width="0.6" height="0.6"/>
      <rect x="18.2" y="4.7"  width="0.6" height="0.6"/>
      <rect x="16.1" y="11.2" width="0.6" height="0.6"/>
      <rect x="10.6" y="15.2" width="0.6" height="0.6"/>
      <rect x="3.8"  y="15.2" width="0.6" height="0.6"/>
      <rect x="-1.7" y="11.2" width="0.6" height="0.6"/>
      <rect x="-3.8" y="4.7"  width="0.6" height="0.6"/>
      <rect x="-1.7" y="-1.8" width="0.6" height="0.6"/>
      <rect x="3.8"  y="-5.8" width="0.6" height="0.6"/>
    </g>
    <g fill="#1A2530">
      <rect x="7.25"  y="0.25" width="0.5" height="0.5"/>
      <rect x="11.55" y="3.35" width="0.5" height="0.5"/>
      <rect x="9.85"  y="8.35" width="0.5" height="0.5"/>
      <rect x="4.65"  y="8.35" width="0.5" height="0.5"/>
      <rect x="2.95"  y="3.35" width="0.5" height="0.5"/>
    </g>
    <polygon class="dome-pulse" points="4.1,-5.5 -3.5,5 -1.5,5 5,-4" fill="#FFFFFF" fill-opacity="0.18"/>
    <rect class="dome-pulse" x="6.5" y="-6" width="2" height="0.5" fill="#FFFFFF" opacity="0.85"/>
    <rect class="dome-flash-a" x="1" y="-3" width="0.5" height="1.5" fill="#FFFFFF"/>
    <rect class="dome-flash-b" x="14" y="3" width="1.5" height="0.5" fill="#FFFFFF"/>
  </g>
</svg>
